<?xml version="1.0" encoding="UTF-8" standalone="no"?>
<!DOCTYPE svg PUBLIC "-//W3C//DTD SVG 1.1//EN" "http://www.w3.org/Graphics/SVG/1.1/DTD/svg11.dtd">
<svg width="100%" height="100%" viewBox="0 0 917 215" version="1.1" xmlns="http://www.w3.org/2000/svg" xmlns:xlink="http://www.w3.org/1999/xlink" xml:space="preserve" xmlns:serif="http://www.serif.com/" style="fill-rule:evenodd;clip-rule:evenodd;stroke-linejoin:round;stroke-miterlimit:2;">
    <path d="M46.071,210.393L64.5,205.786L64.5,7.679L29.179,7.679C29.179,20.169 25.8,32.148 19.043,43.614C16.176,48.324 12.9,52.214 9.214,55.286L-0,55.286L-0,-0L179.679,-0L179.679,55.286L170.464,55.286C166.574,52.214 163.195,48.324 160.329,43.614C153.776,32.557 150.5,20.579 150.5,7.679L115.179,7.679L115.179,205.786L133.607,210.393L133.607,215L46.071,215L46.071,210.393ZM193.5,210.393L211.929,205.786L211.929,70.643L193.5,66.036L193.5,61.429L233.429,61.429C251.857,61.429 261.071,70.643 261.071,89.071L261.071,205.786L279.5,210.393L279.5,215L193.5,215L193.5,210.393ZM297.929,207.321L385.464,69.107L330.179,69.107C330.179,80.369 326.8,91.733 320.043,103.2C317.381,107.5 314.105,111.493 310.214,115.179L301,115.179L301,61.429L440.75,61.429L440.75,69.107L353.214,207.321L411.571,207.321C411.571,195.65 414.848,184.286 421.4,173.229C424.267,168.519 427.645,164.526 431.536,161.25L440.75,161.25L440.75,215L297.929,215L297.929,207.321ZM496.036,38.393L496.036,201.179L520.607,210.393L520.607,215L462.25,215L462.25,210.393L486.821,201.179L486.821,9.214L468.393,4.607L468.393,-0L506.786,-0C517.433,-0 525.88,2.201 532.125,6.604C538.37,11.006 543.745,17.507 548.25,26.107L615.207,154.186L666.5,26.107C669.981,17.098 674.69,10.494 680.629,6.296C686.567,2.099 695.679,-0 707.964,-0L740.214,-0L740.214,4.607L721.786,9.214L721.786,205.786L740.214,210.393L740.214,215L652.679,215L652.679,210.393L671.107,205.786L671.107,38.393L598.929,215L589.714,215L496.036,38.393ZM850.786,215C824.576,215 804.202,207.782 789.664,193.346C775.126,178.911 767.857,158.998 767.857,133.607C767.857,117.021 771.031,102.586 777.379,90.3C783.726,78.014 792.582,68.595 803.946,62.043C815.311,55.49 828.364,52.214 843.107,52.214C857.85,52.214 870.801,54.979 881.961,60.507C893.12,66.036 901.72,73.458 907.761,82.775C913.801,92.092 916.821,102.381 916.821,113.643C916.821,118.762 916.31,123.164 915.286,126.85L913.75,132.071C904.945,133.914 895.424,135.45 885.186,136.679C863.686,139.75 841.981,141.286 820.071,141.286C820.071,165.038 823.348,181.982 829.9,192.118C836.452,202.254 845.462,207.321 856.929,207.321C864.914,207.321 872.337,205.427 879.196,201.639C886.056,197.851 891.482,192.835 895.475,186.589C899.468,180.344 901.464,173.945 901.464,167.393L909.143,167.393C909.143,175.583 906.686,183.364 901.771,190.736C896.857,198.107 889.998,203.994 881.193,208.396C872.388,212.799 862.252,215 850.786,215ZM820.071,133.607C833.176,133.607 843.824,133.095 852.014,132.071C855.495,131.867 859.181,131.355 863.071,130.536C863.276,129.512 863.788,127.26 864.607,123.779C865.631,118.66 866.143,113.233 866.143,107.5C866.143,90.505 863.89,78.065 859.386,70.182C854.881,62.299 849.455,58.357 843.107,58.357C827.75,58.357 820.071,83.44 820.071,133.607ZM233.429,43C227.286,43 222.167,40.952 218.071,36.857C213.976,32.762 211.929,27.643 211.929,21.5C211.929,15.357 213.976,10.238 218.071,6.143C222.167,2.048 227.286,-0 233.429,-0C239.571,-0 244.69,2.048 248.786,6.143C252.881,10.238 254.929,15.357 254.929,21.5C254.929,27.643 252.881,32.762 248.786,36.857C244.69,40.952 239.571,43 233.429,43Z" style="fill:white;fill-rule:nonzero;"/>
</svg>
