<svg width="180" height="180" viewBox="0 0 180 180" fill="none" xmlns="http://www.w3.org/2000/svg">
<rect width="180" height="180" fill="black"/>
<circle cx="90" cy="90" r="75" fill="#FBBC05"/>
<path d="M89.6213 60.4546L103.336 70.7442L117.36 80.6083L111.813 96.8317L106.765 113.218L89.6213 112.955L72.4775 113.218L67.4299 96.8317L61.8821 80.6083L75.9063 70.7442L89.6213 60.4546Z" fill="white"/>
<path d="M53.6367 47.1969L52.1215 77.4999L33.9397 95.6818C31.7933 92.3989 29.2428 82.1211 36.2125 67.2727C43.1821 52.4242 50.7327 47.7019 53.6367 47.1969Z" fill="white"/>
<path d="M116.661 40.725L87.9457 50.5228L64.3293 40.3531C66.5857 37.1449 75.1918 30.9746 91.5651 31.9595C107.938 32.9445 115.118 38.2136 116.661 40.725Z" fill="white"/>
<path d="M146.923 97.5088L126.355 75.6165L127.992 47.6898C132.09 48.0827 141.546 52.8837 146.585 68.9436C151.624 85.0035 148.91 94.6787 146.923 97.5088Z" fill="white"/>
<path d="M97.5016 145.27L114.795 118.629L141.819 112.236C142.173 116.405 139.261 127.142 124.785 136.738C110.309 146.334 100.564 146.424 97.5016 145.27Z" fill="white"/>
<path d="M37.0484 111.97L67.6163 120.595L81.7276 144.513C77.8504 146.086 66.7324 146.485 53.279 135.501C39.8255 124.518 36.853 115.237 37.0484 111.97Z" fill="white"/>
</svg>
