<?xml version="1.0" encoding="UTF-8" standalone="no"?>
<!DOCTYPE svg PUBLIC "-//W3C//DTD SVG 1.1//EN" "http://www.w3.org/Graphics/SVG/1.1/DTD/svg11.dtd">
<svg width="100%" height="100%" viewBox="0 0 987 215" version="1.1" xmlns="http://www.w3.org/2000/svg" xmlns:xlink="http://www.w3.org/1999/xlink" xml:space="preserve" xmlns:serif="http://www.serif.com/" style="fill-rule:evenodd;clip-rule:evenodd;stroke-linejoin:round;stroke-miterlimit:2;">
    <g transform="matrix(5.77545,0,0,5.77545,-773.879,-410.371)">
        <path d="M141.804,106.719L144.928,105.938L144.928,72.356L138.941,72.356C138.941,74.473 138.368,76.504 137.223,78.448C136.737,79.246 136.181,79.906 135.557,80.426L133.995,80.426L133.995,71.054L164.453,71.054L164.453,80.426L162.891,80.426C162.231,79.906 161.658,79.246 161.173,78.448C160.062,76.573 159.506,74.543 159.506,72.356L153.519,72.356L153.519,105.938L156.643,106.719L156.643,107.5L141.804,107.5L141.804,106.719Z" style="fill-rule:nonzero;"/>
        <path d="M166.796,106.719L169.919,105.938L169.919,83.029L166.796,82.248L166.796,81.467L173.564,81.467C176.688,81.467 178.25,83.029 178.25,86.153L178.25,105.938L181.374,106.719L181.374,107.5L166.796,107.5L166.796,106.719ZM173.564,78.344C172.523,78.344 171.655,77.996 170.961,77.302C170.267,76.608 169.919,75.74 169.919,74.699C169.919,73.658 170.267,72.79 170.961,72.096C171.655,71.402 172.523,71.054 173.564,71.054C174.605,71.054 175.473,71.402 176.167,72.096C176.861,72.79 177.209,73.658 177.209,74.699C177.209,75.74 176.861,76.608 176.167,77.302C175.473,77.996 174.605,78.344 173.564,78.344Z" style="fill-rule:nonzero;"/>
        <path d="M184.498,106.198L199.336,82.769L189.965,82.769C189.965,84.678 189.392,86.605 188.246,88.548C187.795,89.277 187.24,89.954 186.58,90.579L185.018,90.579L185.018,81.467L208.708,81.467L208.708,82.769L193.869,106.198L203.762,106.198C203.762,104.22 204.317,102.293 205.428,100.419C205.914,99.621 206.487,98.944 207.146,98.389L208.708,98.389L208.708,107.5L184.498,107.5L184.498,106.198Z" style="fill-rule:nonzero;"/>
        <path d="M219.902,106.719L223.026,105.938L223.026,72.356L217.038,72.356C217.038,74.473 216.466,76.504 215.32,78.448C214.834,79.246 214.279,79.906 213.654,80.426L212.092,80.426L212.092,71.054L242.55,71.054L242.55,80.426L240.988,80.426C240.329,79.906 239.756,79.246 239.27,78.448C238.159,76.573 237.604,74.543 237.604,72.356L231.617,72.356L231.617,105.938L234.74,106.719L234.74,107.5L219.902,107.5L219.902,106.719Z" style="fill-rule:nonzero;"/>
        <path d="M257.128,108.281C252.824,108.281 249.449,107.057 247.002,104.61C244.555,102.163 243.331,98.788 243.331,94.484C243.331,90.18 244.555,86.804 247.002,84.357C249.449,81.91 252.824,80.686 257.128,80.686C261.433,80.686 264.808,81.91 267.255,84.357C269.702,86.804 270.926,90.18 270.926,94.484C270.926,98.788 269.702,102.163 267.255,104.61C264.808,107.057 261.433,108.281 257.128,108.281ZM257.128,107.24C258.517,107.24 259.688,106.268 260.643,104.324C261.597,102.38 262.075,99.1 262.075,94.484C262.075,89.867 261.597,86.587 260.643,84.643C259.688,82.7 258.517,81.728 257.128,81.728C255.74,81.728 254.569,82.7 253.614,84.643C252.66,86.587 252.182,89.867 252.182,94.484C252.182,99.1 252.66,102.38 253.614,104.324C254.569,106.268 255.74,107.24 257.128,107.24Z" style="fill-rule:nonzero;"/>
        <path d="M275.091,106.719L278.215,105.938L278.215,72.616L275.091,71.835L275.091,71.054L281.859,71.054C284.983,71.054 286.545,72.616 286.545,75.74L286.545,93.963L296.177,83.81L292.272,82.248L292.272,81.467L302.165,81.467L302.165,82.248L298,83.81L292.012,90.058L302.165,105.938L304.768,106.719L304.768,107.5L298,107.5C296.333,107.5 294.98,107.136 293.938,106.407C292.897,105.678 291.908,104.567 290.971,103.074L286.545,96.046L286.545,105.938L289.669,106.719L289.669,107.5L275.091,107.5L275.091,106.719Z" style="fill-rule:nonzero;"/>
    </g>
</svg>
